<svg width="26" height="26" viewBox="0 0 26 26" fill="none" xmlns="http://www.w3.org/2000/svg">
<path d="M13.0001 2.1665C7.02008 2.1665 2.16675 7.01984 2.16675 12.9998C2.16675 18.9798 7.02008 23.8332 13.0001 23.8332C18.9801 23.8332 23.8334 18.9798 23.8334 12.9998C23.8334 7.01984 18.9801 2.1665 13.0001 2.1665ZM13.0001 21.6665C8.22258 21.6665 4.33342 17.7773 4.33342 12.9998C4.33342 8.22234 8.22258 4.33317 13.0001 4.33317C17.7776 4.33317 21.6668 8.22234 21.6668 12.9998C21.6668 17.7773 17.7776 21.6665 13.0001 21.6665ZM7.04175 18.9582L15.1776 15.1773L18.9584 7.0415L10.8226 10.8223L7.04175 18.9582ZM13.0001 11.8082C13.6609 11.8082 14.1918 12.339 14.1918 12.9998C14.1918 13.6607 13.6609 14.1915 13.0001 14.1915C12.3392 14.1915 11.8084 13.6607 11.8084 12.9998C11.8084 12.339 12.3392 11.8082 13.0001 11.8082Z" fill="white"/>
</svg>
