<svg width="19" height="18" viewBox="0 0 19 18" fill="none" xmlns="http://www.w3.org/2000/svg">
<g id="home">
<path id="house_roof" d="M0.471881 10.4461C0.358573 10.4461 0.245264 10.4055 0.155562 10.3243C-0.0380073 10.1496 -0.0531151 9.85124 0.122513 9.65767L8.45919 0.443792C8.71791 0.157688 9.06728 0 9.44309 0C9.81795 0 10.1673 0.157688 10.427 0.443792L13.2266 3.53806L13.22 2.42386C13.2191 2.29828 13.2691 2.17741 13.357 2.08865C13.4448 1.9999 13.5656 1.94985 13.6922 1.94985H15.5806C15.8412 1.94985 16.0528 2.16136 16.0528 2.42197V6.66349L18.7637 9.65956C18.9383 9.85312 18.9232 10.1515 18.7306 10.3262C18.538 10.5009 18.2387 10.4858 18.064 10.2931L15.2313 7.16205C15.1529 7.07518 15.1095 6.96187 15.1095 6.84573V2.89503H14.1681L14.1784 4.77029C14.1794 4.96575 14.0595 5.14232 13.8772 5.21314C13.695 5.28396 13.4873 5.23486 13.356 5.08944L9.7273 1.07926C9.64988 0.993338 9.54884 0.946127 9.44403 0.946127C9.33922 0.946127 9.23819 0.993338 9.16076 1.07926L0.824082 10.2931C0.730603 10.3961 0.602186 10.4489 0.47377 10.4489L0.471881 10.4461Z" fill="black"/>
<path id="house_lower" d="M14.6355 17.8913H10.8585C10.5979 17.8913 10.3864 17.6798 10.3864 17.4192V14.1144H8.49795V17.4192C8.49795 17.6798 8.28644 17.8913 8.02583 17.8913H4.24888C3.46799 17.8913 2.83252 17.2559 2.83252 16.475V8.92106C2.83252 8.66045 3.04403 8.44894 3.30464 8.44894C3.56525 8.44894 3.77676 8.66045 3.77676 8.92106V16.475C3.77676 16.7356 3.98827 16.9471 4.24888 16.9471H7.55371V13.6423C7.55371 13.3816 7.76522 13.1701 8.02583 13.1701H10.8585C11.1192 13.1701 11.3307 13.3816 11.3307 13.6423V16.9471H14.6355C14.8961 16.9471 15.1076 16.7356 15.1076 16.475V8.92106C15.1076 8.66045 15.3191 8.44894 15.5797 8.44894C15.8403 8.44894 16.0519 8.66045 16.0519 8.92106V16.475C16.0519 17.2559 15.4164 17.8913 14.6355 17.8913Z" fill="black"/>
</g>
</svg>
