<svg width="26" height="26" viewBox="0 0 26 26" fill="none" xmlns="http://www.w3.org/2000/svg">
<path d="M13 23.8335C14.1917 23.8335 15.1667 22.8585 15.1667 21.6668H10.8334C10.8334 22.8585 11.8084 23.8335 13 23.8335ZM19.5 17.3335V11.9168C19.5 8.591 17.7342 5.80683 14.625 5.07016V4.3335C14.625 3.43433 13.8992 2.7085 13 2.7085C12.1009 2.7085 11.375 3.43433 11.375 4.3335V5.07016C8.27671 5.80683 6.50004 8.58016 6.50004 11.9168V17.3335L4.33337 19.5002V20.5835H21.6667V19.5002L19.5 17.3335ZM17.3334 18.4168H8.66671V11.9168C8.66671 9.23016 10.3025 7.04183 13 7.04183C15.6975 7.04183 17.3334 9.23016 17.3334 11.9168V18.4168Z" fill="white"/>
</svg>
