<svg width="26" height="26" viewBox="0 0 26 26" fill="none" xmlns="http://www.w3.org/2000/svg">
<path d="M21.0492 14.0615C21.0926 13.7148 21.1251 13.3682 21.1251 12.9998C21.1251 12.6315 21.0926 12.2848 21.0492 11.9382L23.3351 10.1507C23.5409 9.98817 23.5951 9.69567 23.4651 9.45734L21.2984 5.70901C21.2009 5.53567 21.0167 5.43817 20.8217 5.43817C20.7567 5.43817 20.6917 5.44901 20.6376 5.47067L17.9401 6.55401C17.3767 6.12067 16.7701 5.76317 16.1092 5.49234L15.6976 2.6215C15.6651 2.3615 15.4376 2.1665 15.1667 2.1665H10.8334C10.5626 2.1665 10.3351 2.3615 10.3026 2.6215L9.89091 5.49234C9.23007 5.76317 8.6234 6.13151 8.06007 6.55401L5.36257 5.47067C5.29757 5.44901 5.23257 5.43817 5.16757 5.43817C4.9834 5.43817 4.79924 5.53567 4.70174 5.70901L2.53507 9.45734C2.39424 9.69567 2.45924 9.98817 2.66507 10.1507L4.9509 11.9382C4.90757 12.2848 4.87507 12.6423 4.87507 12.9998C4.87507 13.3573 4.90757 13.7148 4.9509 14.0615L2.66507 15.849C2.45924 16.0115 2.40507 16.304 2.53507 16.5423L4.70174 20.2907C4.79924 20.464 4.9834 20.5615 5.1784 20.5615C5.2434 20.5615 5.3084 20.5507 5.36257 20.529L8.06007 19.4457C8.6234 19.879 9.23007 20.2365 9.89091 20.5073L10.3026 23.3782C10.3351 23.6382 10.5626 23.8332 10.8334 23.8332H15.1667C15.4376 23.8332 15.6651 23.6382 15.6976 23.3782L16.1092 20.5073C16.7701 20.2365 17.3767 19.8682 17.9401 19.4457L20.6376 20.529C20.7026 20.5507 20.7676 20.5615 20.8326 20.5615C21.0167 20.5615 21.2009 20.464 21.2984 20.2907L23.4651 16.5423C23.5951 16.304 23.5409 16.0115 23.3351 15.849L21.0492 14.0615ZM18.9042 12.209C18.9476 12.5448 18.9584 12.7723 18.9584 12.9998C18.9584 13.2273 18.9367 13.4657 18.9042 13.7907L18.7526 15.0148L19.7167 15.7732L20.8867 16.6832L20.1284 17.994L18.7526 17.4415L17.6259 16.9865L16.6509 17.7232C16.1851 18.0698 15.7409 18.3298 15.2967 18.514L14.1484 18.9798L13.9751 20.204L13.7584 21.6665H12.2417L12.0359 20.204L11.8626 18.9798L10.7142 18.514C10.2484 18.319 9.81507 18.0698 9.38174 17.7448L8.39591 16.9865L7.24757 17.4523L5.87174 18.0048L5.1134 16.694L6.2834 15.784L7.24757 15.0257L7.0959 13.8015C7.0634 13.4657 7.04174 13.2165 7.04174 12.9998C7.04174 12.7832 7.0634 12.534 7.0959 12.209L7.24757 10.9848L6.2834 10.2265L5.1134 9.31651L5.87174 8.00567L7.24757 8.55817L8.37424 9.01317L9.34924 8.27651C9.81507 7.92984 10.2592 7.66984 10.7034 7.48567L11.8517 7.01984L12.0251 5.79567L12.2417 4.33317H13.7476L13.9534 5.79567L14.1267 7.01984L15.2751 7.48567C15.7409 7.68067 16.1742 7.92984 16.6076 8.25484L17.5934 9.01317L18.7417 8.54734L20.1176 7.99484L20.8759 9.30567L19.7167 10.2265L18.7526 10.9848L18.9042 12.209ZM13.0001 8.66651C10.6059 8.66651 8.66674 10.6057 8.66674 12.9998C8.66674 15.394 10.6059 17.3332 13.0001 17.3332C15.3942 17.3332 17.3334 15.394 17.3334 12.9998C17.3334 10.6057 15.3942 8.66651 13.0001 8.66651ZM13.0001 15.1665C11.8084 15.1665 10.8334 14.1915 10.8334 12.9998C10.8334 11.8082 11.8084 10.8332 13.0001 10.8332C14.1917 10.8332 15.1667 11.8082 15.1667 12.9998C15.1667 14.1915 14.1917 15.1665 13.0001 15.1665Z" fill="white"/>
</svg>
