<svg width="58" height="58" viewBox="0 0 58 58" fill="none" xmlns="http://www.w3.org/2000/svg">
<rect x="4" width="50" height="58" rx="4" fill="#505C74"/>
<path d="M16.3535 31.9629L18.7051 24.0469H20.0518L16.9141 34H15.8135L12.6689 24.0469H14.0225L16.3535 31.9629ZM21.4258 30.2334C21.4258 29.7002 21.5033 29.2057 21.6582 28.75C21.8132 28.2897 22.0342 27.891 22.3213 27.5537C22.613 27.2165 22.9661 26.9521 23.3809 26.7607C23.7956 26.5648 24.2627 26.4668 24.7822 26.4668C25.3063 26.4668 25.7757 26.5648 26.1904 26.7607C26.6097 26.9521 26.9629 27.2165 27.25 27.5537C27.5417 27.891 27.765 28.2897 27.9199 28.75C28.0749 29.2057 28.1523 29.7002 28.1523 30.2334V30.3838C28.1523 30.917 28.0749 31.4115 27.9199 31.8672C27.765 32.3229 27.5417 32.7194 27.25 33.0566C26.9629 33.3939 26.612 33.6582 26.1973 33.8496C25.7826 34.041 25.3154 34.1367 24.7959 34.1367C24.2718 34.1367 23.8001 34.041 23.3809 33.8496C22.9661 33.6582 22.613 33.3939 22.3213 33.0566C22.0342 32.7194 21.8132 32.3229 21.6582 31.8672C21.5033 31.4115 21.4258 30.917 21.4258 30.3838V30.2334ZM22.6904 30.3838C22.6904 30.7484 22.7337 31.097 22.8203 31.4297C22.9069 31.7578 23.0368 32.0472 23.21 32.2979C23.3877 32.5485 23.6087 32.7467 23.873 32.8926C24.1374 33.0384 24.445 33.1113 24.7959 33.1113C25.1423 33.1113 25.4453 33.0384 25.7051 32.8926C25.9694 32.7467 26.1882 32.5485 26.3613 32.2979C26.5391 32.0472 26.6712 31.7578 26.7578 31.4297C26.8444 31.097 26.8877 30.7484 26.8877 30.3838V30.2334C26.8877 29.8734 26.8421 29.5293 26.751 29.2012C26.6644 28.8685 26.5322 28.5768 26.3545 28.3262C26.1813 28.0755 25.9626 27.8773 25.6982 27.7314C25.4385 27.5811 25.1331 27.5059 24.7822 27.5059C24.4313 27.5059 24.126 27.5811 23.8662 27.7314C23.6064 27.8773 23.3877 28.0755 23.21 28.3262C23.0368 28.5768 22.9069 28.8685 22.8203 29.2012C22.7337 29.5293 22.6904 29.8734 22.6904 30.2334V30.3838ZM33.1836 24.8125V26.6035H36V27.5811H33.1836V31.6006C33.1836 31.8877 33.2201 32.1247 33.293 32.3115C33.3659 32.4984 33.4661 32.6488 33.5938 32.7627C33.7214 32.8721 33.8672 32.9495 34.0312 32.9951C34.1999 33.0407 34.3776 33.0635 34.5645 33.0635C34.7012 33.0635 34.8424 33.0566 34.9883 33.043C35.1341 33.0247 35.2754 33.0042 35.4121 32.9814C35.5534 32.9587 35.6833 32.9359 35.8018 32.9131C35.9248 32.8857 36.0251 32.863 36.1025 32.8447L36.2803 33.7402C36.1755 33.804 36.0479 33.861 35.8975 33.9111C35.7471 33.9567 35.583 33.9954 35.4053 34.0273C35.2275 34.0638 35.0384 34.0911 34.8379 34.1094C34.6419 34.1276 34.446 34.1367 34.25 34.1367C33.9219 34.1367 33.6143 34.0911 33.3271 34C33.0446 33.9043 32.7985 33.7562 32.5889 33.5557C32.3792 33.3506 32.2129 33.0885 32.0898 32.7695C31.9714 32.446 31.9121 32.0563 31.9121 31.6006V27.5811H29.9707V26.6035H31.9121V24.8125H33.1836ZM41.8652 34.1367C41.3457 34.1367 40.8672 34.0479 40.4297 33.8701C39.9967 33.6924 39.6253 33.444 39.3154 33.125C39.0055 32.806 38.764 32.4277 38.5908 31.9902C38.4176 31.5527 38.3311 31.0765 38.3311 30.5615V30.2744C38.3311 29.6774 38.4268 29.1442 38.6182 28.6748C38.8096 28.2008 39.0625 27.8021 39.377 27.4785C39.696 27.1504 40.056 26.8997 40.457 26.7266C40.8626 26.5534 41.2773 26.4668 41.7012 26.4668C42.2344 26.4668 42.6992 26.5602 43.0957 26.7471C43.4967 26.9294 43.8294 27.1846 44.0938 27.5127C44.3581 27.8363 44.554 28.2191 44.6816 28.6611C44.8138 29.1032 44.8799 29.5817 44.8799 30.0967V30.6641H39.5957C39.6094 31.0013 39.6732 31.318 39.7871 31.6143C39.9056 31.9105 40.0651 32.1702 40.2656 32.3936C40.4707 32.6123 40.7145 32.7855 40.9971 32.9131C41.2796 33.0407 41.5918 33.1045 41.9336 33.1045C42.3848 33.1045 42.7858 33.0133 43.1367 32.8311C43.4876 32.6488 43.7793 32.4072 44.0117 32.1064L44.7842 32.708C44.6611 32.8949 44.5062 33.0749 44.3193 33.248C44.137 33.4167 43.9251 33.5671 43.6836 33.6992C43.4421 33.8314 43.1686 33.9362 42.8633 34.0137C42.5579 34.0957 42.2253 34.1367 41.8652 34.1367ZM41.7012 27.5059C41.446 27.5059 41.2044 27.5537 40.9766 27.6494C40.7487 27.7406 40.5436 27.8773 40.3613 28.0596C40.179 28.2373 40.0241 28.4583 39.8965 28.7227C39.7734 28.9824 39.6868 29.2832 39.6367 29.625H43.6152V29.5293C43.6016 29.2832 43.5537 29.0394 43.4717 28.7979C43.3942 28.5563 43.278 28.3398 43.123 28.1484C42.9681 27.957 42.7721 27.8021 42.5352 27.6836C42.3027 27.5651 42.0247 27.5059 41.7012 27.5059Z" fill="white"/>
<line y1="56" x2="58" y2="56" stroke="#362E4F" stroke-width="4"/>
</svg>
