<svg width="50" height="58" viewBox="0 0 50 58" fill="none" xmlns="http://www.w3.org/2000/svg">
<rect width="50" height="58" rx="4" fill="#505C74"/>
<path d="M12.3535 31.9629L14.7051 24.0469H16.0518L12.9141 34H11.8135L8.66895 24.0469H10.0225L12.3535 31.9629ZM17.4258 30.2334C17.4258 29.7002 17.5033 29.2057 17.6582 28.75C17.8132 28.2897 18.0342 27.891 18.3213 27.5537C18.613 27.2165 18.9661 26.9521 19.3809 26.7607C19.7956 26.5648 20.2627 26.4668 20.7822 26.4668C21.3063 26.4668 21.7757 26.5648 22.1904 26.7607C22.6097 26.9521 22.9629 27.2165 23.25 27.5537C23.5417 27.891 23.765 28.2897 23.9199 28.75C24.0749 29.2057 24.1523 29.7002 24.1523 30.2334V30.3838C24.1523 30.917 24.0749 31.4115 23.9199 31.8672C23.765 32.3229 23.5417 32.7194 23.25 33.0566C22.9629 33.3939 22.612 33.6582 22.1973 33.8496C21.7826 34.041 21.3154 34.1367 20.7959 34.1367C20.2718 34.1367 19.8001 34.041 19.3809 33.8496C18.9661 33.6582 18.613 33.3939 18.3213 33.0566C18.0342 32.7194 17.8132 32.3229 17.6582 31.8672C17.5033 31.4115 17.4258 30.917 17.4258 30.3838V30.2334ZM18.6904 30.3838C18.6904 30.7484 18.7337 31.097 18.8203 31.4297C18.9069 31.7578 19.0368 32.0472 19.21 32.2979C19.3877 32.5485 19.6087 32.7467 19.873 32.8926C20.1374 33.0384 20.445 33.1113 20.7959 33.1113C21.1423 33.1113 21.4453 33.0384 21.7051 32.8926C21.9694 32.7467 22.1882 32.5485 22.3613 32.2979C22.5391 32.0472 22.6712 31.7578 22.7578 31.4297C22.8444 31.097 22.8877 30.7484 22.8877 30.3838V30.2334C22.8877 29.8734 22.8421 29.5293 22.751 29.2012C22.6644 28.8685 22.5322 28.5768 22.3545 28.3262C22.1813 28.0755 21.9626 27.8773 21.6982 27.7314C21.4385 27.5811 21.1331 27.5059 20.7822 27.5059C20.4313 27.5059 20.126 27.5811 19.8662 27.7314C19.6064 27.8773 19.3877 28.0755 19.21 28.3262C19.0368 28.5768 18.9069 28.8685 18.8203 29.2012C18.7337 29.5293 18.6904 29.8734 18.6904 30.2334V30.3838ZM29.1836 24.8125V26.6035H32V27.5811H29.1836V31.6006C29.1836 31.8877 29.2201 32.1247 29.293 32.3115C29.3659 32.4984 29.4661 32.6488 29.5938 32.7627C29.7214 32.8721 29.8672 32.9495 30.0312 32.9951C30.1999 33.0407 30.3776 33.0635 30.5645 33.0635C30.7012 33.0635 30.8424 33.0566 30.9883 33.043C31.1341 33.0247 31.2754 33.0042 31.4121 32.9814C31.5534 32.9587 31.6833 32.9359 31.8018 32.9131C31.9248 32.8857 32.0251 32.863 32.1025 32.8447L32.2803 33.7402C32.1755 33.804 32.0479 33.861 31.8975 33.9111C31.7471 33.9567 31.583 33.9954 31.4053 34.0273C31.2275 34.0638 31.0384 34.0911 30.8379 34.1094C30.6419 34.1276 30.446 34.1367 30.25 34.1367C29.9219 34.1367 29.6143 34.0911 29.3271 34C29.0446 33.9043 28.7985 33.7562 28.5889 33.5557C28.3792 33.3506 28.2129 33.0885 28.0898 32.7695C27.9714 32.446 27.9121 32.0563 27.9121 31.6006V27.5811H25.9707V26.6035H27.9121V24.8125H29.1836ZM37.8652 34.1367C37.3457 34.1367 36.8672 34.0479 36.4297 33.8701C35.9967 33.6924 35.6253 33.444 35.3154 33.125C35.0055 32.806 34.764 32.4277 34.5908 31.9902C34.4176 31.5527 34.3311 31.0765 34.3311 30.5615V30.2744C34.3311 29.6774 34.4268 29.1442 34.6182 28.6748C34.8096 28.2008 35.0625 27.8021 35.377 27.4785C35.696 27.1504 36.056 26.8997 36.457 26.7266C36.8626 26.5534 37.2773 26.4668 37.7012 26.4668C38.2344 26.4668 38.6992 26.5602 39.0957 26.7471C39.4967 26.9294 39.8294 27.1846 40.0938 27.5127C40.3581 27.8363 40.554 28.2191 40.6816 28.6611C40.8138 29.1032 40.8799 29.5817 40.8799 30.0967V30.6641H35.5957C35.6094 31.0013 35.6732 31.318 35.7871 31.6143C35.9056 31.9105 36.0651 32.1702 36.2656 32.3936C36.4707 32.6123 36.7145 32.7855 36.9971 32.9131C37.2796 33.0407 37.5918 33.1045 37.9336 33.1045C38.3848 33.1045 38.7858 33.0133 39.1367 32.8311C39.4876 32.6488 39.7793 32.4072 40.0117 32.1064L40.7842 32.708C40.6611 32.8949 40.5062 33.0749 40.3193 33.248C40.137 33.4167 39.9251 33.5671 39.6836 33.6992C39.4421 33.8314 39.1686 33.9362 38.8633 34.0137C38.5579 34.0957 38.2253 34.1367 37.8652 34.1367ZM37.7012 27.5059C37.446 27.5059 37.2044 27.5537 36.9766 27.6494C36.7487 27.7406 36.5436 27.8773 36.3613 28.0596C36.179 28.2373 36.0241 28.4583 35.8965 28.7227C35.7734 28.9824 35.6868 29.2832 35.6367 29.625H39.6152V29.5293C39.6016 29.2832 39.5537 29.0394 39.4717 28.7979C39.3942 28.5563 39.278 28.3398 39.123 28.1484C38.9681 27.957 38.7721 27.8021 38.5352 27.6836C38.3027 27.5651 38.0247 27.5059 37.7012 27.5059Z" fill="white"/>
</svg>
